<?xml version="1.0" encoding="UTF-8"?>
<svg id="Layer_2" data-name="Layer 2" xmlns="http://www.w3.org/2000/svg" viewBox="0 0 583.79 61.48">
  <defs>
    <style>
      .cls-1 {
        fill: #f2f2f2;
      }
    </style>
  </defs>
  <g id="Layer_1-2" data-name="Layer 1">
    <path class="cls-1" d="m39.77,59.43c-.8,0-1.49-.33-2.07-.98l-17.71-20.65H5.43v18.91c0,.73-.25,1.36-.76,1.9-.51.54-1.16.81-1.96.81-.73,0-1.36-.27-1.9-.81-.54-.54-.81-1.18-.81-1.9V4.01c0-.8.27-1.45.81-1.96.54-.51,1.18-.76,1.9-.76h15.97c4.27,0,7.95.8,11.03,2.39,3.08,1.59,5.47,3.75,7.17,6.47,1.7,2.72,2.55,5.85,2.55,9.4,0,3.91-1.07,7.46-3.21,10.65-2.14,3.19-5.45,5.4-9.94,6.63l15.54,18.15c.43.44.65,1.02.65,1.74,0,.65-.25,1.27-.76,1.85-.51.58-1.16.87-1.96.87ZM5.43,6.72v25.65h13.26c5,0,8.8-1.25,11.41-3.75,2.61-2.5,3.91-5.52,3.91-9.07,0-3.84-1.43-6.94-4.29-9.29-2.86-2.35-6.54-3.53-11.03-3.53H5.43Z"/>
    <path class="cls-1" d="m337.1,59.43c-.8,0-1.49-.33-2.07-.98l-17.71-20.65h-14.56v18.91c0,.73-.25,1.36-.76,1.9-.51.54-1.16.81-1.96.81-.73,0-1.36-.27-1.9-.81-.54-.54-.81-1.18-.81-1.9V4.01c0-.8.27-1.45.81-1.96.54-.51,1.18-.76,1.9-.76h15.97c4.27,0,7.95.8,11.03,2.39,3.08,1.59,5.47,3.75,7.17,6.47,1.7,2.72,2.55,5.85,2.55,9.4,0,3.91-1.07,7.46-3.21,10.65-2.14,3.19-5.45,5.4-9.94,6.63l15.54,18.15c.43.44.65,1.02.65,1.74,0,.65-.25,1.27-.76,1.85-.51.58-1.16.87-1.96.87Zm-34.34-52.7v25.65h13.26c5,0,8.8-1.25,11.41-3.75,2.61-2.5,3.91-5.52,3.91-9.07,0-3.84-1.43-6.94-4.29-9.29-2.86-2.35-6.54-3.53-11.03-3.53h-13.26Z"/>
    <path class="cls-1" d="m346.93,59.43c-.72,0-1.36-.27-1.9-.81-.54-.54-.82-1.18-.82-1.9V4.01c0-.72.23-1.36.71-1.9.47-.54,1.03-.81,1.68-.81h30.43c.8,0,1.45.25,1.96.76.51.51.76,1.16.76,1.96,0,.73-.25,1.36-.76,1.9-.51.54-1.16.81-1.96.81h-27.38v18.91h22.71c.8,0,1.45.25,1.96.76.51.51.76,1.16.76,1.96,0,.73-.25,1.36-.76,1.9s-1.16.81-1.96.81h-22.71v22.93h27.6c.8,0,1.45.25,1.96.76.51.51.76,1.16.76,1.96,0,.73-.25,1.36-.76,1.9-.51.54-1.16.81-1.96.81h-30.32Z"/>
    <path class="cls-1" d="m417.17,8.46c-1.74-.72-3.64-1.3-5.71-1.74-2.06-.43-4.76-.65-8.1-.65-3.69,0-6.63.92-8.8,2.77-2.17,1.85-3.26,3.93-3.26,6.25s1.01,4.42,3.04,6.3c2.03,1.88,5.98,3.51,11.84,4.89,5.22,1.16,9.25,2.65,12.12,4.46,2.86,1.81,4.87,3.86,6.03,6.14,1.16,2.28,1.74,4.8,1.74,7.55s-.67,5.23-2.01,7.66c-1.34,2.43-3.51,4.42-6.52,5.98-3.01,1.56-7.01,2.34-12.01,2.34-7.1,0-13.66-1.67-19.67-5-.94-.58-1.41-1.38-1.41-2.39,0-.65.25-1.27.76-1.85.51-.58,1.16-.87,1.96-.87.43,0,.87.11,1.3.33,5.14,2.9,10.83,4.35,17.06,4.35,4.92,0,8.67-1.03,11.25-3.1,2.57-2.06,3.86-4.55,3.86-7.44,0-3.04-1.21-5.58-3.64-7.61-2.43-2.03-6.39-3.73-11.9-5.11-5.14-1.3-9.11-2.79-11.9-4.46-2.79-1.67-4.71-3.55-5.76-5.65-1.05-2.1-1.58-4.42-1.58-6.95,0-2.32.67-4.55,2.01-6.68,1.34-2.14,3.31-3.89,5.92-5.27,2.61-1.38,5.79-2.06,9.56-2.06,3.98,0,7.19.31,9.62.92,2.43.62,4.98,1.47,7.66,2.55,1.16.43,1.74,1.27,1.74,2.5,0,.73-.27,1.36-.81,1.9-.54.54-1.18.81-1.9.81-.15,0-.36-.05-.65-.16-.29-.11-.91-.34-1.85-.71Z"/>
    <g>
      <path class="cls-1" d="m428.86,8.07c0-3.45,2.86-6.31,6.31-6.31h14.47c18.17,0,30.36,13.04,30.36,29.44s-12.2,29.44-30.36,29.44h-14.47c-3.45,0-6.31-2.86-6.31-6.31V8.07Zm20.77,40.79c10.85,0,17.33-7.82,17.33-17.66s-6.48-17.66-17.33-17.66h-8.16v35.32h8.16Z"/>
      <path class="cls-1" d="m488.41,8.07c0-3.45,2.86-6.31,6.31-6.31h21.53c3.28,0,5.89,2.61,5.89,5.89s-2.61,5.89-5.89,5.89h-15.22v11.77h15.22c3.28,0,5.89,2.61,5.89,5.89s-2.61,5.89-5.89,5.89h-15.22v11.77h15.22c3.28,0,5.89,2.61,5.89,5.89s-2.61,5.89-5.89,5.89h-21.53c-3.45,0-6.31-2.86-6.31-6.31V8.07Z"/>
      <path class="cls-1" d="m530.55,7.23c0-3.45,2.86-6.31,6.31-6.31s6.31,2.86,6.31,6.31v31.79l30.19-36c1.09-1.35,2.94-2.1,4.54-2.1,3.28,0,5.89,2.61,5.89,5.89,0,1.26-.25,2.44-1.35,3.78l-40.54,48.36c-1.51,1.85-3.36,2.52-5.05,2.52-3.45,0-6.31-2.86-6.31-6.31V7.23Z"/>
    </g>
    <path class="cls-1" d="m52.02,56.66c0,.73-.25,1.36-.76,1.9-.51.54-1.16.81-1.96.81-.73,0-1.36-.27-1.9-.81-.54-.54-.81-1.18-.81-1.9V3.96c0-.8.27-1.45.81-1.96.54-.51,1.18-.76,1.9-.76.8,0,1.45.25,1.96.76.51.51.76,1.16.76,1.96v52.7Z"/>
    <path class="cls-1" d="m152.56,58.29c-2.46-3.33-5.31-7.06-8.53-11.19-3.22-4.13-6.54-8.35-9.94-12.66-3.41-4.31-6.68-8.49-9.83-12.55-3.15-4.06-5.96-7.64-8.42-10.76v45.53c0,.73-.25,1.36-.76,1.9-.51.54-1.16.81-1.96.81-.72,0-1.36-.27-1.9-.81-.54-.54-.82-1.18-.82-1.9V3.96c0-.8.27-1.45.82-1.96.54-.51,1.14-.76,1.79-.76,1.45,0,2.43.36,2.93,1.09,1.81,2.39,4.17,5.45,7.06,9.18,2.9,3.73,6.07,7.79,9.51,12.17,3.44,4.38,6.92,8.8,10.43,13.26,3.51,4.46,6.75,8.64,9.73,12.55V3.96c0-.8.27-1.45.81-1.96.54-.51,1.18-.76,1.9-.76.8,0,1.45.25,1.96.76.51.51.76,1.16.76,1.96v52.7c0,.73-.25,1.36-.76,1.9s-1.12.81-1.85.81c-1.45,0-2.43-.36-2.93-1.09Z"/>
    <path class="cls-1" d="m165.61,59.38c-.72,0-1.36-.27-1.9-.81-.54-.54-.82-1.18-.82-1.9V6.67h-20.32c-.73,0-1.36-.27-1.9-.81-.54-.54-.81-1.18-.81-1.9,0-.8.27-1.45.81-1.96.54-.51,1.18-.76,1.9-.76h46.51c.8,0,1.45.25,1.96.76.51.51.76,1.16.76,1.96,0,.73-.25,1.36-.76,1.9-.51.54-1.16.81-1.96.81h-20.76v49.99c0,.73-.25,1.36-.76,1.9-.51.54-1.16.81-1.96.81Z"/>
    <path class="cls-1" d="m81.59,0c1.09,0,1.99.69,2.72,2.06.87,1.67,2.07,4.11,3.59,7.33,1.52,3.22,3.21,6.85,5.05,10.87,1.85,4.02,3.69,8.1,5.54,12.23s3.51,7.99,5,11.57c1.49,3.59,2.63,6.5,3.42,8.75.29.8.54,1.56.76,2.28.22.72.33,1.23.33,1.52,0,.65-.22,1.27-.65,1.85-.43.58-1.12.87-2.06.87-.58,0-1.12-.16-1.63-.49-.51-.33-.83-.78-.98-1.36-.72-2.32-1.74-5.13-3.04-8.42-1.3-3.3-2.75-6.79-4.35-10.49-1.59-3.69-3.22-7.41-4.89-11.14-1.67-3.73-3.26-7.21-4.78-10.43-1.52-3.22-2.86-6-4.02-8.31-1.45,2.97-3.15,6.54-5.11,10.7-1.96,4.17-3.93,8.53-5.92,13.09-1.99,4.56-3.88,9.02-5.65,13.37-1.77,4.35-3.21,8.19-4.29,11.52-.43,1.23-1.34,1.85-2.72,1.85-.72,0-1.34-.27-1.85-.81-.51-.54-.76-1.21-.76-2.01,0-.22.09-.65.27-1.3.18-.65.53-1.67,1.03-3.04.94-2.46,2.16-5.47,3.64-9.02,1.49-3.55,3.12-7.35,4.89-11.41,1.78-4.06,3.57-8.04,5.38-11.95,1.81-3.91,3.48-7.46,5-10.65,1.52-3.19,2.75-5.72,3.69-7.61.43-.94,1.23-1.41,2.39-1.41Z"/>
    <path class="cls-1" d="m196.83,0c1.09,0,1.99.69,2.72,2.06.87,1.67,2.07,4.11,3.59,7.33,1.52,3.22,3.21,6.85,5.05,10.87,1.85,4.02,3.69,8.1,5.54,12.23s3.51,7.99,5,11.57c1.49,3.59,2.63,6.5,3.42,8.75.29.8.54,1.56.76,2.28.22.72.33,1.23.33,1.52,0,.65-.22,1.27-.65,1.85-.43.58-1.12.87-2.06.87-.58,0-1.12-.16-1.63-.49-.51-.33-.83-.78-.98-1.36-.72-2.32-1.74-5.13-3.04-8.42-1.3-3.3-2.75-6.79-4.35-10.49-1.59-3.69-3.22-7.41-4.89-11.14-1.67-3.73-3.26-7.21-4.78-10.43-1.52-3.22-2.86-6-4.02-8.31-1.45,2.97-3.15,6.54-5.11,10.7-1.96,4.17-3.93,8.53-5.92,13.09-1.99,4.56-3.88,9.02-5.65,13.37-1.77,4.35-3.21,8.19-4.29,11.52-.43,1.23-1.34,1.85-2.72,1.85-.72,0-1.34-.27-1.85-.81-.51-.54-.76-1.21-.76-2.01,0-.22.09-.65.27-1.3.18-.65.53-1.67,1.03-3.04.94-2.46,2.16-5.47,3.64-9.02,1.49-3.55,3.12-7.35,4.89-11.41,1.78-4.06,3.57-8.04,5.38-11.95,1.81-3.91,3.48-7.46,5-10.65,1.52-3.19,2.75-5.72,3.69-7.61.43-.94,1.23-1.41,2.39-1.41Z"/>
    <path class="cls-1" d="m267.17,0c1.09,0,1.99.69,2.72,2.06.87,1.67,2.07,4.11,3.59,7.33,1.52,3.22,3.21,6.85,5.05,10.87,1.85,4.02,3.69,8.1,5.54,12.23s3.51,7.99,5,11.57c1.49,3.59,2.63,6.5,3.42,8.75.29.8.54,1.56.76,2.28.22.72.33,1.23.33,1.52,0,.65-.22,1.27-.65,1.85-.43.58-1.12.87-2.06.87-.58,0-1.12-.16-1.63-.49-.51-.33-.83-.78-.98-1.36-.72-2.32-1.74-5.13-3.04-8.42-1.3-3.3-2.75-6.79-4.35-10.49-1.59-3.69-3.22-7.41-4.89-11.14-1.67-3.73-3.26-7.21-4.78-10.43-1.52-3.22-2.86-6-4.02-8.31-1.45,2.97-3.15,6.54-5.11,10.7-1.96,4.17-3.93,8.53-5.92,13.09-1.99,4.56-3.88,9.02-5.65,13.37-1.77,4.35-3.21,8.19-4.29,11.52-.43,1.23-1.34,1.85-2.72,1.85-.72,0-1.34-.27-1.85-.81-.51-.54-.76-1.21-.76-2.01,0-.22.09-.65.27-1.3.18-.65.53-1.67,1.03-3.04.94-2.46,2.16-5.47,3.64-9.02,1.49-3.55,3.12-7.35,4.89-11.41,1.78-4.06,3.57-8.04,5.38-11.95,1.81-3.91,3.48-7.46,5-10.65,1.52-3.19,2.75-5.72,3.69-7.61.43-.94,1.23-1.41,2.39-1.41Z"/>
    <path class="cls-1" d="m231.86,59.46c-1.09,0-1.99-.69-2.72-2.06-.87-1.67-2.07-4.11-3.59-7.33-1.52-3.22-3.21-6.85-5.05-10.87-1.85-4.02-3.69-8.1-5.54-12.23s-3.51-7.99-5-11.57c-1.49-3.59-2.63-6.5-3.42-8.75-.29-.8-.54-1.56-.76-2.28-.22-.72-.33-1.23-.33-1.52,0-.65.22-1.27.65-1.85.43-.58,1.12-.87,2.06-.87.58,0,1.12.16,1.63.49.51.33.83.78.98,1.36.72,2.32,1.74,5.13,3.04,8.42,1.3,3.3,2.75,6.79,4.35,10.49,1.59,3.69,3.22,7.41,4.89,11.14,1.67,3.73,3.26,7.21,4.78,10.43,1.52,3.22,2.86,6,4.02,8.31,1.45-2.97,3.15-6.54,5.11-10.7,1.96-4.17,3.93-8.53,5.92-13.09,1.99-4.56,3.88-9.02,5.65-13.37,1.77-4.35,3.21-8.19,4.29-11.52.43-1.23,1.34-1.85,2.72-1.85.72,0,1.34.27,1.85.81.51.54.76,1.21.76,2.01,0,.22-.09.65-.27,1.3-.18.65-.53,1.67-1.03,3.04-.94,2.46-2.16,5.47-3.64,9.02-1.49,3.55-3.12,7.35-4.89,11.41-1.78,4.06-3.57,8.04-5.38,11.95-1.81,3.91-3.48,7.46-5,10.65-1.52,3.19-2.75,5.72-3.69,7.61-.43.94-1.23,1.41-2.39,1.41Z"/>
  </g>
</svg>